<?xml version="1.0" encoding="UTF-8" standalone="no"?>
<!DOCTYPE svg PUBLIC "-//W3C//DTD SVG 1.1//EN" "http://www.w3.org/Graphics/SVG/1.1/DTD/svg11.dtd">
<svg version="1.1" xmlns="http://www.w3.org/2000/svg" xmlns:xlink="http://www.w3.org/1999/xlink" preserveAspectRatio="xMidYMid meet" viewBox="0 0 640 640" width="640" height="640"><defs><path d="M112.35 8.39C54.72 26.61 11.92 75.77 2.38 135.52C-0.79 153.96 -0.79 487.47 2.38 505.9C12.13 565.86 53.45 613.54 113.41 633.67C114.4 633.99 119.34 635.62 128.24 638.54L320 638.54L511.76 638.54C520.66 635.62 525.6 633.99 526.59 633.67C586.55 613.54 627.87 565.86 637.62 505.9C640.79 487.47 640.79 153.96 637.62 135.52C628.08 75.98 588.04 29.58 527.65 7.76C518.47 4.51 514.81 3.22 516.68 3.88C514.83 3.22 512.87 2.88 510.89 2.88C512.88 2.88 451.02 2.81 325.3 2.67C221.47 2.46 134.39 2.67 131.42 3.31C128.46 3.73 119.98 6.06 112.35 8.39ZM428.06 230.66C425.1 236.38 425.1 236.38 393.95 208.41C379.75 195.49 365.98 183.41 363.65 181.29C349.03 168.37 343.31 162.43 344.37 160.53C345.21 159.47 362.59 158.62 384.41 158.62C417.89 158.62 423.61 159.04 426.15 162.22C429.97 166.67 431.66 224.09 428.06 230.66ZM211.94 295.07C211.94 420.51 211.94 419.66 225.08 427.71C231.86 431.74 235.46 431.95 347.55 431.95C459.63 431.95 463.23 432.16 470.01 436.19C481.67 443.39 485.69 460.13 478.28 470.3C470.65 480.47 475.31 480.26 313.64 480.9C303.54 480.95 253.04 481.24 162.15 481.74C162.65 390.85 162.94 340.35 162.99 330.25C163.42 241.04 164.48 177.27 165.75 174.93C168.71 169.43 180.16 162.86 187.15 162.86C190.54 162.86 195.84 164.34 199.23 166.25C212.36 174.09 211.94 170.48 211.94 295.07ZM383.57 224.3C383.57 226 366.83 244.22 346.49 264.56C326.14 284.9 309.41 302.91 309.41 304.61C309.41 306.09 313.22 311.6 317.88 316.69C324.66 324.1 326.36 327.49 326.36 333.85C326.36 341.26 324.24 344.02 292.03 376.23C269.36 398.69 255.37 410.97 251.35 412.03C243.3 413.94 232.07 408.01 228.89 399.96C224.44 389.15 227.83 383.22 252.2 358.85C265.12 346.14 275.5 334.48 275.5 333.21C275.5 331.94 272.96 328.76 270 325.8C262.58 318.8 258.55 310.75 258.55 302.28C258.55 296.13 263.43 290.41 306.86 247.19C333.35 220.49 356.44 198.88 358.14 198.88C359.83 198.88 366.19 203.75 372.34 209.9C378.48 216.04 383.57 222.4 383.57 224.3Z" id="b3z3eSb1Sp"></path></defs><g><g><g><use xlink:href="#b3z3eSb1Sp" opacity="1" fill="#000000" fill-opacity="1"></use><use xlink:href="#b3z3eSb1Sp" opacity="1" fill="#0040dd" fill-opacity="1"></use><g><use xlink:href="#b3z3eSb1Sp" opacity="1" fill-opacity="0" stroke="#000000" stroke-width="1" stroke-opacity="0"></use></g></g></g></g></svg>